<svg width="28" height="28" viewBox="0 0 28 28" fill="none" xmlns="http://www.w3.org/2000/svg">
<g clip-path="url(#clip0)">
<path d="M17.8622 10.1444C17.5 10.1444 17.2065 10.438 17.2065 10.8001V23.1936C17.2065 23.5555 17.5 23.8493 17.8622 23.8493C18.2244 23.8493 18.5179 23.5555 18.5179 23.1936V10.8001C18.5179 10.438 18.2244 10.1444 17.8622 10.1444Z" fill="#DF6868"/>
<path d="M10.1245 10.1444C9.76233 10.1444 9.46878 10.438 9.46878 10.8001V23.1936C9.46878 23.5555 9.76233 23.8493 10.1245 23.8493C10.4867 23.8493 10.7803 23.5555 10.7803 23.1936V10.8001C10.7803 10.438 10.4867 10.1444 10.1245 10.1444Z" fill="#DF6868"/>
<path d="M4.48517 8.33575V24.4917C4.48517 25.4466 4.83532 26.3434 5.447 26.9868C6.05586 27.632 6.90319 27.9983 7.78997 27.9999H20.1967C21.0837 27.9983 21.9311 27.632 22.5397 26.9868C23.1513 26.3434 23.5015 25.4466 23.5015 24.4917V8.33575C24.7174 8.013 25.5053 6.83831 25.3427 5.59062C25.1798 4.34319 24.117 3.41005 22.8588 3.40979H19.5015V2.59012C19.5054 1.90083 19.2328 1.23895 18.7449 0.752011C18.2569 0.265332 17.594 -0.00567114 16.9047 -3.5912e-05H11.082C10.3927 -0.00567114 9.72977 0.265332 9.24181 0.752011C8.75385 1.23895 8.48131 1.90083 8.48515 2.59012V3.40979H5.12784C3.86965 3.41005 2.80689 4.34319 2.64399 5.59062C2.48133 6.83831 3.26924 8.013 4.48517 8.33575ZM20.1967 26.6884H7.78997C6.66882 26.6884 5.79664 25.7253 5.79664 24.4917V8.39338H22.19V24.4917C22.19 25.7253 21.3178 26.6884 20.1967 26.6884ZM9.79663 2.59012C9.79227 2.24868 9.92649 1.92004 10.1688 1.67901C10.4109 1.43797 10.7403 1.30554 11.082 1.31144H16.9047C17.2464 1.30554 17.5758 1.43797 17.8179 1.67901C18.0602 1.91978 18.1944 2.24868 18.19 2.59012V3.40979H9.79663V2.59012ZM5.12784 4.72126H22.8588C23.5107 4.72126 24.0391 5.24969 24.0391 5.90159C24.0391 6.55348 23.5107 7.08191 22.8588 7.08191H5.12784C4.47595 7.08191 3.94752 6.55348 3.94752 5.90159C3.94752 5.24969 4.47595 4.72126 5.12784 4.72126Z" fill="#DF6868"/>
<path d="M13.9934 10.1444C13.6312 10.1444 13.3376 10.438 13.3376 10.8001V23.1936C13.3376 23.5555 13.6312 23.8493 13.9934 23.8493C14.3555 23.8493 14.6491 23.5555 14.6491 23.1936V10.8001C14.6491 10.438 14.3555 10.1444 13.9934 10.1444Z" fill="#DF6868"/>
</g>
<defs>
<clipPath id="clip0">
<rect width="28" height="28" fill="white"/>
</clipPath>
</defs>
</svg>
