<svg width="25" height="25" viewBox="0 0 25 25" fill="none" xmlns="http://www.w3.org/2000/svg">
<path fill-rule="evenodd" clip-rule="evenodd" d="M20.9251 0.645167L24.3342 4.05712C24.7637 4.48692 25 5.05789 25 5.6654C25 6.2729 24.7637 6.84382 24.3342 7.27363L8.92289 22.5603C8.85466 22.628 8.77087 22.6769 8.67877 22.7036L0.724289 24.9782C0.67326 24.9926 0.620526 24.9999 0.568378 24.9999C0.419657 24.9999 0.274825 24.9416 0.16664 24.8333C0.0206891 24.6872 -0.0348148 24.4734 0.0218077 24.2751L2.29449 16.3138C2.32112 16.2217 2.36997 16.1378 2.43767 16.0695L17.7097 0.646818C18.572 -0.216156 20.0662 -0.214505 20.9251 0.645167ZM17.3252 6.87136L15.2337 4.77989L4.20389 15.909L3.26937 17.0453L2.4928 19.7638L5.2362 22.5072L7.95466 21.7306L9.09106 20.7961L20.2201 9.7663L18.1286 7.67483L17.3252 6.87136ZM2.13575 21.0136L1.39566 23.6044L3.98634 22.8642L2.13575 21.0136ZM21.0271 8.96644L23.5324 6.48352C23.7455 6.27045 23.8637 5.98526 23.8637 5.68175C23.8637 5.37824 23.7455 5.09305 23.5308 4.87833L20.1217 1.46926C19.6922 1.03977 18.9443 1.03977 18.5148 1.46926L16.0335 3.97285L21.0271 8.96644Z" fill="#595959"/>
</svg>
