<svg width="29" height="29" viewBox="0 0 29 29" fill="none" xmlns="http://www.w3.org/2000/svg">
<path d="M28.8157 13.9359C28.5566 13.5815 22.3837 5.25824 14.4999 5.25824C6.61598 5.25824 0.442817 13.5815 0.184026 13.9356C-0.0613419 14.2718 -0.0613419 14.7278 0.184026 15.0641C0.442817 15.4185 6.61598 23.7418 14.4999 23.7418C22.3837 23.7418 28.5566 15.4184 28.8157 15.0643C29.0614 14.7282 29.0614 14.2718 28.8157 13.9359ZM14.4999 21.8297C8.69254 21.8297 3.66279 16.3053 2.17387 14.4993C3.66086 12.6918 8.68008 7.17032 14.4999 7.17032C20.3069 7.17032 25.3363 12.6937 26.8258 14.5006C25.3389 16.3082 20.3196 21.8297 14.4999 21.8297Z" fill="#989898"/>
<path d="M14.4999 8.76373C11.3369 8.76373 8.76358 11.3371 8.76358 14.5C8.76358 17.663 11.3369 20.2363 14.4999 20.2363C17.6628 20.2363 20.2362 17.663 20.2362 14.5C20.2362 11.3371 17.6628 8.76373 14.4999 8.76373ZM14.4999 18.3242C12.3911 18.3242 10.6757 16.6087 10.6757 14.5C10.6757 12.3913 12.3912 10.6759 14.4999 10.6759C16.6086 10.6759 18.324 12.3913 18.324 14.5C18.324 16.6087 16.6086 18.3242 14.4999 18.3242Z" fill="#989898"/>
</svg>
