<svg width="19" height="19" viewBox="0 0 19 19" fill="none" xmlns="http://www.w3.org/2000/svg">
<path d="M17.3291 7.27026H13.1243C13.5569 6.50328 13.845 5.77338 13.9836 5.09138C14.1602 4.22254 14.0854 3.44432 13.7673 2.84074C13.396 2.13603 12.7037 1.71361 11.9155 1.71075C11.9128 1.71075 11.9101 1.71075 11.9074 1.71075C11.3691 1.71075 10.967 1.90736 10.7125 2.29508C10.5143 2.59693 10.4349 2.96472 10.3429 3.39058C10.1223 4.41228 9.8217 5.80384 7.69589 7.27026C7.34647 7.2703 6.54075 7.27033 6.02705 7.2703C5.7973 6.62244 5.17858 6.15701 4.45294 6.15701H0.556604C0.249227 6.15705 0 6.40628 0 6.71366V16.7326C0 17.04 0.249227 17.2892 0.556604 17.2892H4.45287C5.1785 17.2892 5.79719 16.8238 6.02697 16.176H6.67772C8.54685 16.6956 10.484 17.2892 12.5003 17.2892H15.1027C16.0234 17.2892 16.7725 16.5401 16.7725 15.6194C16.7725 15.4021 16.7303 15.1946 16.6544 15.004C17.6064 14.7445 18.1384 13.709 17.7676 12.7775C18.9641 12.4514 19.4001 10.9768 18.5724 10.0533C19.5336 8.98093 18.7686 7.27026 17.3291 7.27026ZM5.00947 7.83132H5.00943C5.00943 7.83154 5.00947 7.83176 5.00947 7.83198V15.6194C5.00947 15.9263 4.75976 16.176 4.45287 16.176H1.11321V7.27026H4.45287C4.7598 7.27026 5.00947 7.51997 5.00947 7.82686V7.83132ZM14.5461 10.61H17.3291C17.636 10.61 17.8857 10.8597 17.8857 11.1666C17.8857 11.4735 17.636 11.7231 17.3291 11.7231C17.0764 11.7231 14.8045 11.7231 14.5461 11.7231C14.2386 11.7231 13.9895 11.9724 13.9895 12.2797C13.9895 12.5871 14.2387 12.8363 14.5461 12.8363H16.2159C16.5228 12.8363 16.7725 13.086 16.7725 13.3929C16.7725 13.6999 16.5228 13.9495 16.2159 13.9495H14.5461C14.2386 13.9495 13.9895 14.1988 13.9895 14.5061C13.9895 14.8135 14.2387 15.0627 14.5461 15.0627H15.1027C15.4096 15.0627 15.6593 15.3125 15.6593 15.6193C15.6593 15.9262 15.4096 16.176 15.1027 16.176H12.5003C10.6214 16.176 8.72868 15.5893 6.90223 15.083C6.80772 15.0568 6.81799 15.0702 6.12271 15.0702V8.37612C6.97504 8.37616 7.86975 8.3835 7.86975 8.3835C7.97866 8.38295 8.08491 8.35044 8.17549 8.29002C10.8019 6.53906 11.1958 4.71524 11.431 3.62556C11.6043 2.82296 11.6335 2.82318 11.9114 2.824C12.2917 2.82537 12.6011 3.01567 12.7825 3.35975C12.957 3.6911 13.3922 4.96985 11.662 7.51388C11.4112 7.88267 11.676 8.38354 12.1223 8.38354H17.3291C17.636 8.38354 17.8857 8.63325 17.8857 8.94014C17.8857 9.24708 17.636 9.49675 17.3291 9.49675H14.5461C14.2386 9.49675 13.9895 9.74597 13.9895 10.0534C13.9895 10.3608 14.2386 10.61 14.5461 10.61Z" fill="#989898"/>
<path d="M3.33965 15.0629C3.64706 15.0629 3.89626 14.8137 3.89626 14.5063C3.89626 14.1989 3.64706 13.9497 3.33965 13.9497C3.03225 13.9497 2.78305 14.1989 2.78305 14.5063C2.78305 14.8137 3.03225 15.0629 3.33965 15.0629Z" fill="#989898"/>
</svg>
